<svg width="329" height="70" viewBox="0 0 329 70" fill="none" xmlns="http://www.w3.org/2000/svg">
<circle cx="66.5001" cy="42.7999" r="9.6" fill="#0EB5EB"/>
<path d="M62.7843 43.8393L65.9632 38.9135H67.6085V43.8088H68.5733V44.8955H67.6085V46.2666H66.3491V44.8955H62.7843V43.8393ZM66.3694 43.8088V40.4166H66.2882L64.1351 43.758V43.8088H66.3694Z" fill="#F9F9F9"/>
<path d="M57.319 59.7312C57.3159 60.1062 57.3893 60.4671 57.5393 60.814C57.6924 61.1578 57.919 61.4625 58.219 61.7281C58.5221 61.9937 58.8877 62.1968 59.3159 62.3375L58.7534 63.1531C58.3127 62.9937 57.9284 62.764 57.6002 62.464C57.2752 62.164 57.0174 61.8125 56.8268 61.4093C56.6362 61.875 56.3659 62.2781 56.0159 62.6187C55.6659 62.9593 55.244 63.2187 54.7502 63.3968L54.1971 62.5718C54.644 62.4187 55.0221 62.2 55.3315 61.9156C55.644 61.6281 55.8784 61.3 56.0346 60.9312C56.1909 60.5593 56.269 60.1687 56.269 59.7593V59H57.319V59.7312ZM55.4909 63.8281H60.9659V66.9312H55.4909V63.8281ZM59.9346 66.0875V64.6625H56.5221V66.0875H59.9346ZM59.9252 58.5593H60.9659V60.5562H62.1471V61.4093H60.9659V63.4812H59.9252V58.5593ZM69.1027 60.6031H70.284V61.475H69.1027V63.5H68.0621V58.5593H69.1027V60.6031ZM62.334 62.6562C62.984 62.4875 63.5449 62.2671 64.0168 61.9953C64.4887 61.7203 64.859 61.4062 65.1277 61.0531C65.3965 60.6968 65.5606 60.3125 65.6199 59.9H62.7559V59.0562H66.7402C66.7402 59.7906 66.584 60.45 66.2715 61.0343C65.9621 61.6187 65.5106 62.114 64.9168 62.5203C64.3262 62.9265 63.609 63.2375 62.7652 63.4531L62.334 62.6562ZM63.459 63.8562H69.1027V67.0343H68.0621V64.6906H63.459V63.8562ZM73.7521 60.9687C73.7521 61.4343 73.8396 61.8953 74.0146 62.3515C74.1927 62.8046 74.4459 63.2125 74.774 63.575C75.1052 63.9343 75.4927 64.2062 75.9365 64.3906L75.3646 65.2156C74.874 65.0031 74.4474 64.689 74.0849 64.2734C73.7224 63.8546 73.4412 63.3687 73.2412 62.8156C73.0412 63.4093 72.7584 63.9343 72.3927 64.3906C72.0271 64.8468 71.6021 65.1906 71.1177 65.4218L70.5177 64.6062C70.9521 64.4062 71.3334 64.1125 71.6615 63.725C71.9896 63.3375 72.2427 62.9015 72.4209 62.4171C72.599 61.9328 72.6896 61.45 72.6927 60.9687V60.2562H70.8271V59.3937H75.6084V60.2562H73.7521V60.9687ZM76.5552 58.5593H77.6052V67.0343H76.5552V58.5593Z" fill="#0EB5EB"/>
<g clip-path="url(#clip0_358_8496)">
<g clip-path="url(#clip1_358_8496)">
<path d="M115.501 35.8389L112.914 31.3589L118.087 31.3589L115.501 35.8389Z" fill="#0EB5EB"/>
<circle cx="115.538" cy="16.3828" r="16.384" fill="#0EB5EB"/>
<path d="M119.784 8.95843C119.148 8.97744 118.397 9.22459 117.969 9.51926C117.218 8.16948 115.897 7.32349 114.338 7.32349C112.085 7.32349 110.041 8.85387 109.908 11.0021C109.899 11.0021 109.889 11.0021 109.88 11.0021C107.532 11.0021 105.821 13.0743 105.821 15.4222C105.821 17.77 107.703 19.386 110.041 19.405C110.06 19.405 110.079 19.405 110.098 19.405C110.849 19.424 119.262 19.424 119.262 19.424C119.414 19.424 119.594 19.424 119.737 19.424C122.617 19.424 124.946 17.3043 124.946 14.3576C124.946 11.4109 122.655 8.89189 119.784 8.95843Z" fill="white"/>
<path d="M113.112 19.5952L109.965 23.7491H111.847V26.6578L114.994 22.5039H113.112V19.5952Z" fill="white"/>
<path d="M118.929 19.5952L115.792 23.7301H117.665V26.6293L120.802 22.4944H118.929V19.5952Z" fill="white"/>
</g>
</g>
<rect x="76.1003" y="42.24" width="78.8" height="1.6" fill="#0EB5EB"/>
<circle cx="164.5" cy="42.7999" r="9.6" fill="#0CD77D"/>
<path d="M162.21 45.3119L164.81 42.8033C165.091 42.5223 165.307 42.2921 165.46 42.1127C165.616 41.9299 165.734 41.7505 165.815 41.5744C165.897 41.395 165.937 41.2054 165.937 41.0057C165.937 40.7822 165.881 40.5859 165.77 40.4166C165.661 40.2473 165.511 40.117 165.318 40.0256C165.128 39.9342 164.915 39.8885 164.678 39.8885C164.427 39.8885 164.207 39.9393 164.018 40.0408C163.831 40.139 163.688 40.2795 163.586 40.4623C163.488 40.6451 163.439 40.8601 163.439 41.1072H162.179C162.179 40.6502 162.284 40.249 162.494 39.9037C162.707 39.555 163.004 39.2859 163.383 39.0963C163.765 38.9067 164.2 38.8119 164.688 38.8119C165.182 38.8119 165.619 38.9033 165.998 39.0861C166.381 39.2689 166.677 39.5229 166.887 39.8479C167.1 40.1695 167.207 40.5351 167.207 40.9447C167.203 41.2291 167.147 41.5033 167.039 41.7674C166.931 42.0281 166.745 42.3192 166.481 42.6408C166.216 42.9624 165.842 43.3518 165.358 43.8088L164.048 45.1088V45.1596H167.318V46.2666H162.21V45.3119Z" fill="#F9F9F9"/>
<path d="M159.31 60.5937C159.306 61.1031 159.386 61.6 159.549 62.0843C159.714 62.5687 159.952 63.0031 160.261 63.3875C160.574 63.7687 160.944 64.0625 161.372 64.2687L160.735 65.1031C160.285 64.875 159.894 64.55 159.563 64.1281C159.235 63.7062 158.978 63.2187 158.794 62.6656C158.603 63.2562 158.335 63.7781 157.988 64.2312C157.644 64.6812 157.235 65.025 156.76 65.2625L156.122 64.4281C156.563 64.2187 156.944 63.914 157.266 63.514C157.591 63.1109 157.838 62.6562 158.006 62.15C158.178 61.6406 158.266 61.1218 158.269 60.5937V59.2437H159.31V60.5937ZM161.878 58.5593H162.919V61.8781H164.222V62.7687H162.919V67.0343H161.878V58.5593ZM171.112 60.6406H172.284V61.4937H171.112V63.5093H170.062V58.5593H171.112V60.6406ZM164.746 59.1593H168.543V60.0031H165.778V62.1312C166.618 62.1281 167.295 62.1093 167.807 62.075C168.32 62.0375 168.818 61.9687 169.303 61.8687L169.406 62.7031C168.884 62.8156 168.342 62.889 167.779 62.9234C167.22 62.9578 166.437 62.975 165.431 62.975H164.746V59.1593ZM165.478 65.3375C165.478 64.9906 165.593 64.6921 165.825 64.4421C166.059 64.1921 166.392 64.0015 166.823 63.8703C167.257 63.7359 167.765 63.6687 168.346 63.6687C168.925 63.6687 169.426 63.7359 169.851 63.8703C170.279 64.0015 170.609 64.1921 170.84 64.4421C171.071 64.6921 171.187 64.9906 171.187 65.3375C171.187 65.6906 171.071 65.9937 170.84 66.2468C170.609 66.5 170.279 66.6921 169.851 66.8234C169.426 66.9578 168.925 67.025 168.346 67.025C167.762 67.025 167.254 66.9578 166.823 66.8234C166.392 66.6921 166.059 66.5 165.825 66.2468C165.593 65.9937 165.478 65.6906 165.478 65.3375ZM166.509 65.3375C166.506 65.6093 166.665 65.8203 166.987 65.9703C167.309 66.1171 167.762 66.1906 168.346 66.1906C168.918 66.1906 169.365 66.1171 169.687 65.9703C170.009 65.8203 170.171 65.6093 170.175 65.3375C170.171 65.0718 170.011 64.8671 169.692 64.7234C169.376 64.5765 168.937 64.5031 168.375 64.5031C167.778 64.5031 167.317 64.575 166.992 64.7187C166.667 64.8625 166.506 65.0687 166.509 65.3375Z" fill="#0CD77D"/>
<rect x="174.1" y="42.8" width="78.8" height="1.6" fill="#0CD77D"/>
<circle cx="262.5" cy="42.7999" r="9.6" fill="#0CD77D"/>
<path d="M260.21 45.3119L262.81 42.8033C263.091 42.5223 263.307 42.2921 263.46 42.1127C263.616 41.9299 263.734 41.7505 263.815 41.5744C263.897 41.395 263.937 41.2054 263.937 41.0057C263.937 40.7822 263.881 40.5859 263.77 40.4166C263.661 40.2473 263.511 40.117 263.318 40.0256C263.128 39.9342 262.915 39.8885 262.678 39.8885C262.427 39.8885 262.207 39.9393 262.018 40.0408C261.831 40.139 261.688 40.2795 261.586 40.4623C261.488 40.6451 261.439 40.8601 261.439 41.1072H260.179C260.179 40.6502 260.284 40.249 260.494 39.9037C260.707 39.555 261.004 39.2859 261.383 39.0963C261.765 38.9067 262.2 38.8119 262.688 38.8119C263.182 38.8119 263.619 38.9033 263.998 39.0861C264.381 39.2689 264.677 39.5229 264.887 39.8479C265.1 40.1695 265.207 40.5351 265.207 40.9447C265.203 41.2291 265.147 41.5033 265.039 41.7674C264.931 42.0281 264.745 42.3192 264.481 42.6408C264.216 42.9624 263.842 43.3518 263.358 43.8088L262.048 45.1088V45.1596H265.318V46.2666H260.21V45.3119Z" fill="#F9F9F9"/>
<path d="M260.966 60.6218H262.147V61.475H260.966V63.5281H259.925V58.5593H260.966V60.6218ZM254.253 62.8156C254.888 62.6437 255.436 62.4171 255.899 62.1359C256.364 61.8546 256.731 61.5328 257 61.1703C257.269 60.8046 257.433 60.4093 257.492 59.9843H254.638V59.1406H258.622C258.622 59.875 258.467 60.5406 258.158 61.1375C257.849 61.7312 257.399 62.2406 256.808 62.6656C256.217 63.0906 255.503 63.4218 254.666 63.6593L254.253 62.8156ZM255.397 65.3281C255.394 64.9843 255.51 64.6843 255.744 64.4281C255.978 64.1718 256.31 63.975 256.738 63.8375C257.166 63.7 257.663 63.6312 258.228 63.6312C258.797 63.6312 259.294 63.7 259.719 63.8375C260.147 63.975 260.477 64.1718 260.708 64.4281C260.942 64.6843 261.06 64.9843 261.06 65.3281C261.06 65.675 260.942 65.9765 260.708 66.2328C260.477 66.489 260.147 66.6843 259.719 66.8187C259.294 66.9562 258.797 67.025 258.228 67.025C257.663 67.025 257.166 66.9562 256.738 66.8187C256.31 66.6843 255.978 66.489 255.744 66.2328C255.51 65.9765 255.394 65.675 255.397 65.3281ZM256.428 65.3281C256.428 65.5093 256.5 65.6671 256.644 65.8015C256.788 65.9328 256.994 66.0343 257.263 66.1062C257.535 66.175 257.856 66.2093 258.228 66.2093C258.597 66.2093 258.917 66.175 259.189 66.1062C259.461 66.0343 259.671 65.9328 259.817 65.8015C259.964 65.6671 260.038 65.5093 260.038 65.3281C260.035 65.05 259.872 64.8343 259.55 64.6812C259.228 64.525 258.788 64.4468 258.228 64.4468C257.856 64.4468 257.535 64.4812 257.263 64.55C256.994 64.6187 256.788 64.7203 256.644 64.8546C256.5 64.9859 256.428 65.1437 256.428 65.3281ZM269.103 60.4062H270.293V61.2687H269.103V63.3406H268.062V58.5687H269.103V60.4062ZM262.784 58.9812H263.834V61.9671C265.012 61.9515 266.168 61.8343 267.303 61.6156L267.425 62.4687C266.768 62.6 266.117 62.6921 265.47 62.7453C264.826 62.7984 264.165 62.825 263.487 62.825H262.784V58.9812ZM263.618 63.7531H269.103V66.9218H263.618V63.7531ZM268.081 66.0968V64.5687H264.64V66.0968H268.081Z" fill="#0CD77D"/>
<defs>
<clipPath id="clip0_358_8496">
<rect width="35.84" height="35.84" fill="white" transform="translate(97.5803)"/>
</clipPath>
<clipPath id="clip1_358_8496">
<rect width="35.84" height="35.84" fill="white" transform="translate(97.5806 -0.0012207)"/>
</clipPath>
</defs>
</svg>
