<svg width="293" height="69" viewBox="0 0 293 69" fill="none" xmlns="http://www.w3.org/2000/svg">
<circle cx="24" cy="37" r="12" fill="#0EB5EB"/>
<path d="M20.2302 38.2991L24.2039 32.1418H26.2605V38.261H27.4666V39.6194H26.2605V41.3333H24.6863V39.6194H20.2302V38.2991ZM24.7117 38.261V34.0208H24.6101L21.9187 38.1975V38.261H24.7117Z" fill="#F9F9F9"/>
<path d="M12.6484 57.9141C12.6445 58.3828 12.7363 58.834 12.9238 59.2676C13.1152 59.6973 13.3984 60.0781 13.7734 60.4102C14.1523 60.7422 14.6094 60.9961 15.1445 61.1719L14.4414 62.1914C13.8906 61.9922 13.4102 61.7051 13 61.3301C12.5938 60.9551 12.2715 60.5156 12.0332 60.0117C11.7949 60.5938 11.457 61.0977 11.0195 61.5234C10.582 61.9492 10.0547 62.2734 9.4375 62.4961L8.74609 61.4648C9.30469 61.2734 9.77734 61 10.1641 60.6445C10.5547 60.2852 10.8477 59.875 11.043 59.4141C11.2383 58.9492 11.3359 58.4609 11.3359 57.9492V57H12.6484V57.9141ZM10.3633 63.0352H17.207V66.9141H10.3633V63.0352ZM15.918 65.8594V64.0781H11.6523V65.8594H15.918ZM15.9062 56.4492H17.207V58.9453H18.6836V60.0117H17.207V62.6016H15.9062V56.4492ZM27.3781 59.0039H28.8547V60.0938H27.3781V62.625H26.0773V56.4492H27.3781V59.0039ZM18.9172 61.5703C19.7297 61.3594 20.4309 61.084 21.0207 60.7441C21.6105 60.4004 22.0734 60.0078 22.4094 59.5664C22.7453 59.1211 22.9504 58.6406 23.0246 58.125H19.4445V57.0703H24.425C24.425 57.9883 24.2297 58.8125 23.8391 59.543C23.4523 60.2734 22.8879 60.8926 22.1457 61.4004C21.4074 61.9082 20.5109 62.2969 19.4563 62.5664L18.9172 61.5703ZM20.3234 63.0703H27.3781V67.043H26.0773V64.1133H20.3234V63.0703ZM33.1898 59.4609C33.1898 60.043 33.2992 60.6191 33.518 61.1895C33.7406 61.7559 34.057 62.2656 34.4672 62.7188C34.8813 63.168 35.3656 63.5078 35.9203 63.7383L35.2055 64.7695C34.5922 64.5039 34.059 64.1113 33.6059 63.5918C33.1527 63.0684 32.8012 62.4609 32.5512 61.7695C32.3012 62.5117 31.9477 63.168 31.4906 63.7383C31.0336 64.3086 30.5023 64.7383 29.8969 65.0273L29.1469 64.0078C29.6898 63.7578 30.1664 63.3906 30.5766 62.9062C30.9867 62.4219 31.3031 61.877 31.5258 61.2715C31.7484 60.666 31.8617 60.0625 31.8656 59.4609V58.5703H29.5336V57.4922H35.5102V58.5703H33.1898V59.4609ZM36.6938 56.4492H38.0063V67.043H36.6938V56.4492Z" fill="#0EB5EB"/>
<g clip-path="url(#clip0_226_9794)">
<g clip-path="url(#clip1_226_9794)">
<path d="M85.2502 28L83.2294 24.5L87.2709 24.5L85.2502 28Z" fill="#0EB5EB"/>
<circle cx="85.2168" cy="12.8" r="12.8" fill="#0EB5EB"/>
<path d="M88.5343 6.99996C88.0367 7.01481 87.4501 7.20789 87.1159 7.4381C86.5292 6.38359 85.497 5.72266 84.2791 5.72266C82.5191 5.72266 80.9225 6.91827 80.8185 8.59659C80.8111 8.59659 80.8036 8.59659 80.7962 8.59659C78.962 8.59659 77.6252 10.2155 77.6252 12.0498C77.6252 13.884 79.0956 15.1465 80.9225 15.1613C80.9373 15.1613 80.9522 15.1613 80.967 15.1613C81.5537 15.1762 88.1259 15.1762 88.1259 15.1762C88.2447 15.1762 88.3858 15.1762 88.4972 15.1762C90.7473 15.1762 92.5667 13.5201 92.5667 11.218C92.5667 8.91591 90.777 6.94798 88.5343 6.99996Z" fill="white"/>
<path d="M83.3211 15.3098L80.863 18.5551H82.3334V20.8275L84.7915 17.5822H83.3211V15.3098Z" fill="white"/>
<path d="M87.8659 15.3098L85.4153 18.5402H86.8782V20.8052L89.3289 17.5748H87.8659V15.3098Z" fill="white"/>
</g>
</g>
<rect x="36" y="36" width="98.5" height="2" fill="#0EB5EB"/>
<circle cx="146.5" cy="37" r="12" fill="#0CD77D"/>
<path d="M143.012 40.1399L146.262 37.0042C146.613 36.6529 146.884 36.3652 147.074 36.1409C147.269 35.9124 147.417 35.6881 147.519 35.468C147.62 35.2437 147.671 35.0068 147.671 34.7571C147.671 34.4778 147.601 34.2323 147.462 34.0208C147.326 33.8092 147.138 33.6462 146.897 33.532C146.66 33.4177 146.393 33.3606 146.097 33.3606C145.784 33.3606 145.509 33.4241 145.272 33.551C145.039 33.6737 144.859 33.8494 144.732 34.0779C144.609 34.3064 144.548 34.5751 144.548 34.884H142.974C142.974 34.3127 143.105 33.8113 143.367 33.3796C143.634 32.9438 144.004 32.6073 144.478 32.3704C144.956 32.1334 145.5 32.0149 146.11 32.0149C146.727 32.0149 147.273 32.1292 147.747 32.3577C148.226 32.5862 148.596 32.9036 148.858 33.3098C149.125 33.7118 149.258 34.1689 149.258 34.6809C149.254 35.0364 149.184 35.3792 149.049 35.7092C148.913 36.0351 148.68 36.399 148.35 36.801C148.02 37.203 147.553 37.6897 146.948 38.261L145.31 39.886V39.9495H149.398V41.3333H143.012V40.1399Z" fill="#F9F9F9"/>
<path d="M140.137 58.9922C140.133 59.6289 140.232 60.25 140.436 60.8555C140.643 61.4609 140.939 62.0039 141.326 62.4844C141.717 62.9609 142.18 63.3281 142.715 63.5859L141.918 64.6289C141.355 64.3438 140.867 63.9375 140.453 63.4102C140.043 62.8828 139.723 62.2734 139.492 61.582C139.254 62.3203 138.918 62.9727 138.484 63.5391C138.055 64.1016 137.543 64.5312 136.949 64.8281L136.152 63.7852C136.703 63.5234 137.18 63.1426 137.582 62.6426C137.988 62.1387 138.297 61.5703 138.508 60.9375C138.723 60.3008 138.832 59.6523 138.836 58.9922V57.3047H140.137V58.9922ZM143.348 56.4492H144.648V60.5977H146.277V61.7109H144.648V67.043H143.348V56.4492ZM154.89 59.0508H156.355V60.1172H154.89V62.6367H153.577V56.4492H154.89V59.0508ZM146.933 57.1992H151.679V58.2539H148.222V60.9141C149.273 60.9102 150.118 60.8867 150.759 60.8438C151.4 60.7969 152.023 60.7109 152.628 60.5859L152.757 61.6289C152.105 61.7695 151.427 61.8613 150.724 61.9043C150.025 61.9473 149.046 61.9688 147.788 61.9688H146.933V57.1992ZM147.847 64.9219C147.847 64.4883 147.991 64.1152 148.28 63.8027C148.573 63.4902 148.989 63.252 149.529 63.0879C150.071 62.9199 150.706 62.8359 151.433 62.8359C152.155 62.8359 152.782 62.9199 153.314 63.0879C153.849 63.252 154.261 63.4902 154.55 63.8027C154.839 64.1152 154.984 64.4883 154.984 64.9219C154.984 65.3633 154.839 65.7422 154.55 66.0586C154.261 66.375 153.849 66.6152 153.314 66.7793C152.782 66.9473 152.155 67.0312 151.433 67.0312C150.702 67.0312 150.068 66.9473 149.529 66.7793C148.989 66.6152 148.573 66.375 148.28 66.0586C147.991 65.7422 147.847 65.3633 147.847 64.9219ZM149.136 64.9219C149.132 65.2617 149.331 65.5254 149.734 65.7129C150.136 65.8965 150.702 65.9883 151.433 65.9883C152.148 65.9883 152.706 65.8965 153.109 65.7129C153.511 65.5254 153.714 65.2617 153.718 64.9219C153.714 64.5898 153.513 64.334 153.114 64.1543C152.72 63.9707 152.171 63.8789 151.468 63.8789C150.722 63.8789 150.146 63.9688 149.739 64.1484C149.333 64.3281 149.132 64.5859 149.136 64.9219Z" fill="#0CD77D"/>
<rect x="158.5" y="36" width="98.5" height="2" fill="#0CD77D"/>
<circle cx="269" cy="37" r="12" fill="#0CD77D"/>
<path d="M265.512 40.1399L268.762 37.0042C269.113 36.6529 269.384 36.3652 269.574 36.1409C269.769 35.9124 269.917 35.6881 270.019 35.468C270.12 35.2437 270.171 35.0068 270.171 34.7571C270.171 34.4778 270.101 34.2323 269.962 34.0208C269.826 33.8092 269.638 33.6462 269.397 33.532C269.16 33.4177 268.893 33.3606 268.597 33.3606C268.284 33.3606 268.009 33.4241 267.772 33.551C267.539 33.6737 267.359 33.8494 267.232 34.0779C267.109 34.3064 267.048 34.5751 267.048 34.884H265.474C265.474 34.3127 265.605 33.8113 265.867 33.3796C266.134 32.9438 266.504 32.6073 266.978 32.3704C267.456 32.1334 268 32.0149 268.61 32.0149C269.227 32.0149 269.773 32.1292 270.247 32.3577C270.726 32.5862 271.096 32.9036 271.358 33.3098C271.625 33.7118 271.758 34.1689 271.758 34.6809C271.754 35.0364 271.684 35.3792 271.549 35.7092C271.413 36.0351 271.18 36.399 270.85 36.801C270.52 37.203 270.053 37.6897 269.448 38.261L267.81 39.886V39.9495H271.898V41.3333H265.512V40.1399Z" fill="#F9F9F9"/>
<path d="M267.207 59.0273H268.684V60.0938H267.207V62.6602H265.906V56.4492H267.207V59.0273ZM258.816 61.7695C259.609 61.5547 260.295 61.2715 260.873 60.9199C261.455 60.5684 261.914 60.166 262.25 59.7129C262.586 59.2559 262.791 58.7617 262.865 58.2305H259.297V57.1758H264.277C264.277 58.0938 264.084 58.9258 263.697 59.6719C263.311 60.4141 262.748 61.0508 262.01 61.582C261.271 62.1133 260.379 62.5273 259.332 62.8242L258.816 61.7695ZM260.246 64.9102C260.242 64.4805 260.387 64.1055 260.68 63.7852C260.973 63.4648 261.387 63.2188 261.922 63.0469C262.457 62.875 263.078 62.7891 263.785 62.7891C264.496 62.7891 265.117 62.875 265.648 63.0469C266.184 63.2188 266.596 63.4648 266.885 63.7852C267.178 64.1055 267.324 64.4805 267.324 64.9102C267.324 65.3438 267.178 65.7207 266.885 66.041C266.596 66.3613 266.184 66.6055 265.648 66.7734C265.117 66.9453 264.496 67.0312 263.785 67.0312C263.078 67.0312 262.457 66.9453 261.922 66.7734C261.387 66.6055 260.973 66.3613 260.68 66.041C260.387 65.7207 260.242 65.3438 260.246 64.9102ZM261.535 64.9102C261.535 65.1367 261.625 65.334 261.805 65.502C261.984 65.666 262.242 65.793 262.578 65.8828C262.918 65.9688 263.32 66.0117 263.785 66.0117C264.246 66.0117 264.646 65.9688 264.986 65.8828C265.326 65.793 265.588 65.666 265.771 65.502C265.955 65.334 266.047 65.1367 266.047 64.9102C266.043 64.5625 265.84 64.293 265.438 64.1016C265.035 63.9062 264.484 63.8086 263.785 63.8086C263.32 63.8086 262.918 63.8516 262.578 63.9375C262.242 64.0234 261.984 64.1504 261.805 64.3184C261.625 64.4824 261.535 64.6797 261.535 64.9102ZM277.378 58.7578H278.866V59.8359H277.378V62.4258H276.077V56.4609H277.378V58.7578ZM269.48 56.9766H270.792V60.709C272.265 60.6895 273.71 60.543 275.128 60.2695L275.28 61.3359C274.46 61.5 273.646 61.6152 272.837 61.6816C272.032 61.748 271.206 61.7812 270.359 61.7812H269.48V56.9766ZM270.523 62.9414H277.378V66.9023H270.523V62.9414ZM276.101 65.8711V63.9609H271.8V65.8711H276.101Z" fill="#0CD77D"/>
<defs>
<clipPath id="clip0_226_9794">
<rect width="28" height="28" fill="white" transform="translate(71.25)"/>
</clipPath>
<clipPath id="clip1_226_9794">
<rect width="28" height="28" fill="white" transform="translate(71.25)"/>
</clipPath>
</defs>
</svg>
