<svg width="18" height="18" viewBox="0 0 18 18" fill="none" xmlns="http://www.w3.org/2000/svg">
<path d="M11.543 4.45718C11.6743 4.32586 11.8302 4.22169 12.0018 4.15062C12.1734 4.07955 12.3573 4.04297 12.543 4.04297C12.7287 4.04297 12.9126 4.07955 13.0842 4.15062C13.2557 4.22169 13.4116 4.32586 13.543 4.45718C13.6743 4.5885 13.7785 4.74441 13.8495 4.91599C13.9206 5.08757 13.9572 5.27147 13.9572 5.45718C13.9572 5.6429 13.9206 5.8268 13.8495 5.99838C13.7785 6.16996 13.6743 6.32586 13.543 6.45718L6.79297 13.2072L4.04297 13.9572L4.79297 11.2072L11.543 4.45718Z" fill="#BEBEBE" stroke="#BEBEBE" stroke-linecap="round" stroke-linejoin="round"/>
</svg>
