<svg width="20" height="21" viewBox="0 0 20 21" fill="none" xmlns="http://www.w3.org/2000/svg">
<path d="M10.4921 9.41012C10.4497 9.17687 10.2456 8.99999 10.0001 8.99999C9.72397 8.99999 9.50011 9.22385 9.50011 9.49999V14.0021L9.50817 14.092C9.55051 14.3253 9.75465 14.5021 10.0001 14.5021C10.2763 14.5021 10.5001 14.2783 10.5001 14.0021V9.49999L10.4921 9.41012ZM10.7988 7.24999C10.7988 6.83578 10.463 6.49999 10.0488 6.49999C9.63461 6.49999 9.29883 6.83578 9.29883 7.24999C9.29883 7.66421 9.63461 7.99999 10.0488 7.99999C10.463 7.99999 10.7988 7.66421 10.7988 7.24999ZM18 10.5C18 6.08172 14.4183 2.5 10 2.5C5.58172 2.5 2 6.08172 2 10.5C2 14.9183 5.58172 18.5 10 18.5C14.4183 18.5 18 14.9183 18 10.5ZM3 10.5C3 6.63401 6.13401 3.5 10 3.5C13.866 3.5 17 6.63401 17 10.5C17 14.366 13.866 17.5 10 17.5C6.13401 17.5 3 14.366 3 10.5Z" fill="#BEBEBE"/>
</svg>
