<svg width="36" height="35" viewBox="0 0 36 35" fill="none" xmlns="http://www.w3.org/2000/svg">
<circle cx="18" cy="17.5" r="17.5" fill="#EBEBEB"/>
<path d="M24.705 7.60965C24.6312 7.20205 24.241 6.93141 23.8334 7.00514C23.4258 7.07888 23.1552 7.46908 23.2289 7.87668L24.705 7.60965ZM24.6437 11.4842L24.7772 12.2222C25.1848 12.1485 25.4555 11.7583 25.3817 11.3507L24.6437 11.4842ZM20.7692 11.4229C20.3616 11.4967 20.0909 11.8869 20.1647 12.2945C20.2384 12.7021 20.6286 12.9727 21.0362 12.899L20.7692 11.4229ZM27.5893 21.8168C27.747 21.4338 27.5642 20.9955 27.1812 20.8378C26.7981 20.6802 26.3598 20.8629 26.2022 21.246L27.5893 21.8168ZM23.2425 25.8548L22.8454 25.2185L23.2425 25.8548ZM17.754 27.238L17.8021 26.4895L17.754 27.238ZM12.4881 25.1624L12.0126 25.7424L12.0126 25.7424L12.4881 25.1624ZM9.4194 20.4062L10.1438 20.2121L10.1438 20.2121L9.4194 20.4062ZM9.69857 14.7529L10.4004 15.0175L9.69857 14.7529ZM13.2209 10.3223L13.6369 10.9463L13.2209 10.3223ZM18.6657 8.7756L18.6915 8.02605L18.6657 8.7756ZM23.5334 11.2868C23.8614 11.5397 24.3324 11.4788 24.5852 11.1507C24.8381 10.8227 24.7772 10.3517 24.4491 10.0988L23.5334 11.2868ZM23.2289 7.87668L23.9057 11.6177L25.3817 11.3507L24.705 7.60965L23.2289 7.87668ZM24.5102 10.7462L20.7692 11.4229L21.0362 12.899L24.7772 12.2222L24.5102 10.7462ZM26.2022 21.246C25.5262 22.8886 24.3522 24.2779 22.8454 25.2185L23.6397 26.491C25.4126 25.3843 26.7939 23.7496 27.5893 21.8168L26.2022 21.246ZM22.8454 25.2185C21.3386 26.1591 19.5748 26.6036 17.8021 26.4895L17.7058 27.9864C19.7914 28.1207 21.8667 27.5977 23.6397 26.491L22.8454 25.2185ZM17.8021 26.4895C16.0295 26.3754 14.3373 25.7084 12.9635 24.5823L12.0126 25.7424C13.629 27.0673 15.6201 27.8521 17.7058 27.9864L17.8021 26.4895ZM12.9635 24.5823C11.5898 23.4563 10.6036 21.9278 10.1438 20.2121L8.69496 20.6004C9.23595 22.6191 10.3963 24.4175 12.0126 25.7424L12.9635 24.5823ZM10.1438 20.2121C9.68405 18.4963 9.77377 16.6796 10.4004 15.0175L8.99679 14.4884C8.25954 16.444 8.15397 18.5816 8.69496 20.6004L10.1438 20.2121ZM10.4004 15.0175C11.027 13.3554 12.1589 11.9316 13.6369 10.9463L12.8049 9.69823C11.0659 10.8575 9.73404 12.5327 8.99679 14.4884L10.4004 15.0175ZM13.6369 10.9463C15.1149 9.96112 16.8646 9.46408 18.6399 9.52516L18.6915 8.02605C16.6027 7.95418 14.544 8.539 12.8049 9.69823L13.6369 10.9463ZM18.6399 9.52516C20.4151 9.58624 22.1265 10.2024 23.5334 11.2868L24.4491 10.0988C22.7939 8.82284 20.7802 8.09791 18.6915 8.02605L18.6399 9.52516Z" fill="#A9A9A9"/>
</svg>
